<mxfile host="app.diagrams.net" modified="2024-03-07T19:13:22.872Z" agent="Mozilla/5.0 (Windows NT 10.0; Win64; x64) AppleWebKit/537.36 (KHTML, like Gecko) Chrome/122.0.0.0 Safari/537.36" version="24.0.2" etag="sH1AGy1sdgHX-9JOHCY6" type="github">
  <diagram name="Page-1" id="sKrXxtCIiOelmCM0lyPz">
    <mxGraphModel>
      <root>
        <mxCell id="0" />
        <mxCell id="1" parent="0" />
      </root>
    </mxGraphModel>
  </diagram>
</mxfile>
